<svg version="1.1" xmlns="http://www.w3.org/2000/svg" viewBox="0 0 208.00006103515625 199.2000274658203" width="624.0001831054688" height="597.6000823974609">
  <!-- svg-source:excalidraw -->
  
  <defs>
    <style class="style-fonts">
      @font-face {
        font-family: "Virgil";
        src: url("https://excalidraw.com/Virgil.woff2");
      }
      @font-face {
        font-family: "Cascadia";
        src: url("https://excalidraw.com/Cascadia.woff2");
      }
    </style>
    
  </defs>
  <g stroke-linecap="round" transform="translate(10 10) rotate(0 94.00003051757812 89.60001373291016)"><path d="M71.04 3.73 C81.77 -0.25, 95.31 -0.24, 106.94 1.14 C118.57 2.52, 130.42 6.16, 140.84 12.01 C151.26 17.87, 161.92 27.04, 169.44 36.26 C176.96 45.48, 183.02 56.21, 185.96 67.31 C188.9 78.42, 188.98 91.62, 187.08 102.88 C185.18 114.14, 180.82 125.28, 174.58 134.89 C168.34 144.5, 159.09 153.64, 149.65 160.53 C140.21 167.42, 129.35 173.23, 117.94 176.22 C106.54 179.2, 93.23 179.92, 81.24 178.43 C69.24 176.93, 56.4 173.21, 45.97 167.26 C35.54 161.32, 25.93 152, 18.68 142.73 C11.44 133.46, 5.48 122.55, 2.49 111.67 C-0.51 100.79, -1.18 88.65, 0.71 77.44 C2.6 66.24, 7.66 54.43, 13.81 44.44 C19.96 34.44, 25.82 24.89, 37.61 17.45 C49.4 10.01, 74.33 2.42, 84.57 -0.2 C94.8 -2.82, 98.93 0.08, 99.02 1.73 M85.91 1.05 C97.06 -1.15, 108.87 0.71, 120.01 3.91 C131.15 7.11, 143.05 13.21, 152.75 20.25 C162.45 27.28, 172.27 36, 178.22 46.11 C184.16 56.22, 187.6 69.43, 188.41 80.92 C189.22 92.41, 186.84 104.21, 183.08 115.06 C179.32 125.92, 173.29 137.02, 165.84 146.05 C158.39 155.08, 149.04 163.76, 138.39 169.26 C127.74 174.77, 114.02 178.24, 101.94 179.09 C89.87 179.95, 77.25 177.72, 65.92 174.37 C54.58 171.02, 42.86 166.09, 33.92 159.02 C24.98 151.94, 18.09 141.93, 12.27 131.91 C6.45 121.89, 0.27 110.04, -0.97 98.91 C-2.21 87.78, 1.1 76.35, 4.83 65.15 C8.56 53.95, 14.05 40.61, 21.43 31.7 C28.82 22.79, 38.71 16.97, 49.14 11.68 C59.58 6.38, 77.96 1.4, 84.04 -0.07 C90.12 -1.53, 85.61 1.43, 85.64 2.91" stroke="none" stroke-width="0" fill="#ffffff"></path><path d="M62.19 4.68 C72.21 -0.11, 85.55 0.57, 97.55 1.08 C109.55 1.58, 123.35 2.94, 134.2 7.71 C145.05 12.48, 154.52 21.09, 162.64 29.7 C170.75 38.32, 178.75 48.83, 182.89 59.39 C187.03 69.95, 188.11 81.82, 187.49 93.05 C186.87 104.29, 184.21 116.38, 179.19 126.81 C174.18 137.24, 166.06 147.87, 157.39 155.63 C148.73 163.39, 138.56 169.38, 127.2 173.37 C115.84 177.37, 101.4 179.96, 89.22 179.61 C77.04 179.27, 64.98 176.06, 54.11 171.32 C43.25 166.58, 32.2 159.63, 24.03 151.18 C15.86 142.74, 8.94 131.57, 5.09 120.64 C1.24 109.72, 0.18 97.22, 0.93 85.64 C1.68 74.05, 4.8 61.31, 9.59 51.12 C14.37 40.93, 19.18 32.51, 29.62 24.48 C40.07 16.45, 63.43 6.59, 72.25 2.95 C81.06 -0.69, 82.07 1.41, 82.49 2.64 M55.45 8.18 C65.48 2.33, 79.41 1.18, 91.09 0.62 C102.77 0.06, 114.59 1.11, 125.52 4.81 C136.45 8.52, 147.68 14.89, 156.66 22.87 C165.64 30.85, 174.4 42.45, 179.4 52.71 C184.4 62.97, 185.94 73.32, 186.67 84.43 C187.39 95.54, 187.39 108.64, 183.76 119.38 C180.13 130.11, 173.37 140.36, 164.87 148.84 C156.38 157.33, 143.81 165.44, 132.81 170.3 C121.81 175.15, 110.5 177.56, 98.85 177.99 C87.21 178.43, 74.22 176.6, 62.93 172.89 C51.64 169.19, 40.33 163.33, 31.11 155.76 C21.88 148.19, 12.72 137.85, 7.57 127.47 C2.43 117.1, 0.82 105.13, 0.24 93.52 C-0.34 81.91, -0.08 68.43, 4.08 57.79 C8.24 47.14, 17.08 37.85, 25.23 29.67 C33.37 21.49, 47.88 11.85, 52.95 8.72 C58.01 5.59, 54.55 9.41, 55.6 10.89" stroke="#1e1e1e" stroke-width="1" fill="none"></path></g><g transform="translate(32.158111572265625 38.54064242300717) rotate(0 72.07362205815036 69.25924618783267)"><text x="0" y="0" font-family="Virgil, Segoe UI Emoji" font-size="110.81479390053231px" fill="#1e1e1e" text-anchor="start" style="white-space: pre;" direction="ltr" dominant-baseline="text-before-edge">FB</text></g></svg>